<svg xmlns="http://www.w3.org/2000/svg" width="14" height="16" fill="none">
  <path fill="#213147" d="M.531 5.045v5.91c0 .378.212.727.554.915l5.363 2.956c.342.188.763.188 1.105 0l5.363-2.956c.342-.188.554-.537.554-.915v-5.91c0-.378-.212-.727-.554-.915L7.553 1.174a1.154 1.154 0 0 0-1.105 0L1.083 4.13a1.046 1.046 0 0 0-.552.915Z"/>
  <path fill="#12AAFF" d="m8.17 9.146-.764 2.002a.246.246 0 0 0 0 .172l1.315 3.445 1.522-.839-1.826-4.78c-.042-.11-.205-.11-.246 0ZM9.704 5.78c-.042-.11-.205-.11-.246 0l-.765 2.002a.245.245 0 0 0 0 .172l2.155 5.64 1.522-.84L9.704 5.78Z"/>
  <path fill="#9DCCED" d="M7 1.396a.24.24 0 0 1 .109.027l5.803 3.198a.207.207 0 0 1 .11.18v6.396a.205.205 0 0 1-.11.18L7.11 14.574a.221.221 0 0 1-.109.027.24.24 0 0 1-.109-.027l-5.803-3.196a.207.207 0 0 1-.11-.18V4.802c0-.074.042-.142.11-.18L6.89 1.425A.226.226 0 0 1 7 1.396Zm0-.934c-.206 0-.414.05-.599.153L.6 3.812c-.37.204-.599.582-.599.99v6.396c0 .408.228.786.599.99l5.803 3.198a1.247 1.247 0 0 0 1.198 0l5.804-3.198c.37-.204.599-.582.599-.99V4.802c0-.408-.229-.786-.6-.99L7.6.615A1.237 1.237 0 0 0 7 .462Z"/>
  <path fill="#213147" d="m3.162 13.6.534-1.395 1.074.853-1.004.876-.604-.333Z"/>
  <path fill="#fff" d="M6.511 4.344H5.04a.261.261 0 0 0-.246.165L1.64 12.762l1.522.839 3.472-9.088c.033-.082-.03-.169-.123-.169ZM9.086 4.344H7.614a.261.261 0 0 0-.246.165l-3.6 9.423 1.52.84 3.92-10.26c.032-.081-.031-.168-.122-.168Z"/>
</svg>
