<svg xmlns="http://www.w3.org/2000/svg" width="600" height="600" fill="none">
  <g fill="#04795b">
    <path d="M176.651 341.446c17.915 0 34.454-5.97 47.777-16.303l-109.339-109.3c-10.336 13.089-16.309 29.621-16.309 47.762-.229 42.939 34.686 77.841 77.871 77.841zM501.912 263.374c0-17.91-5.972-34.442-16.309-47.76l-109.34 109.299c13.094 10.333 29.633 16.303 47.78 16.303 42.954.229 77.869-34.672 77.869-77.842z"/>
    <path d="m557.042 144.662-48.469 48.451c16.08 19.287 25.728 43.627 25.728 70.723 0 60.849-49.386 110.217-110.259 110.217-26.876 0-51.454-9.644-70.749-25.718l-53.062 53.043-53.063-53.043c-19.294 16.074-43.644 25.718-70.749 25.718-60.872 0-110.259-49.368-110.259-110.217 0-26.866 9.648-51.436 25.728-70.723l-24.808-24.8-23.661-23.651C15.856 190.127.005 243.17.005 300.116.005 465.901 134.382 600 300.001 600c165.617 0 299.994-134.328 299.994-299.884.462-57.175-15.389-110.218-42.953-155.454z"/>
    <path d="M517.302 92.997C462.862 35.821 385.681 0 300.231 0 214.78 0 137.829 35.821 83.159 92.997a361.012 361.012 0 0 0-21.134 24.569l237.976 237.886 237.974-238.115c-5.972-8.268-13.093-16.762-20.673-24.34zM300.231 39.036c70.29 0 135.526 27.095 184.453 76.463L300.231 299.885 115.776 115.499c49.158-49.368 114.165-76.463 184.455-76.463z"/>
  </g>
</svg>
